<?xml version="1.0" encoding="iso-8859-1"?>
<!-- Generator: Adobe Illustrator 19.0.0, SVG Export Plug-In . SVG Version: 6.00 Build 0)  -->
<svg version="1.1" id="Layer_1" xmlns="http://www.w3.org/2000/svg" xmlns:xlink="http://www.w3.org/1999/xlink" x="0px" y="0px"
	 viewBox="0 0 489.865 489.865" style="enable-background:new 0 0 489.865 489.865;" xml:space="preserve">
<g>
	<g>
		<path d="M323.732,169.265c41.6-32.3,59.4-77.8,67.4-104.8c7.5-25.5-8.6-58.8-41.8-63.2c-21.6-2.8-50.8,1.1-86.6,11.8
			c-11.7,3.5-24,3.5-35.6,0c-35.8-10.6-65.1-15.6-86.6-11.8c-39.7,7-48.1,39.9-41.8,63.2c7.4,27.2,25.8,72.5,67.4,104.8
			c-56.9,42.8-94.2,125-94.2,184.1c0,81.3,68.8,136.5,173,136.5s173-55.2,173-136.5
			C417.932,294.265,380.632,212.065,323.732,169.265z M138.332,53.465c-1-3.5-1.7-9.8,7.6-11.5c10.9-2,31.9-0.8,69.6,10.4
			c19.3,5.7,39.7,5.7,59,0c37.7-11.2,58.7-12.3,69.6-10.4c7.7,1.3,8.5,8,7.6,11.5c-7,25-25,69.1-68.6,93.8
			c-12.2-4.2-24.9-6.5-38-6.5c-13.1,0-25.9,2.3-38,6.5C163.232,122.565,145.232,78.365,138.332,53.465z M244.932,449.265
			c-60.4,0-132.3-25-132.3-95.9c0-64.6,61.5-171.9,132.3-171.9s132.3,107.3,132.3,171.9
			C377.232,424.265,306.432,449.265,244.932,449.265z"/>
		<path d="M244.932,300.865c-10,0-18.2-8.2-18.2-18.2s8.2-18.2,18.2-18.2c5.1,0,9.8,2,13.3,5.7c6.6,7,17.7,7.4,24.7,0.8
			s7.4-17.7,0.8-24.7c-5.9-6.3-13.2-11-21.3-13.8v-7.6c0-9.7-7.8-17.5-17.5-17.5s-17.5,7.8-17.5,17.5v7.6
			c-20.8,7.3-35.7,27-35.7,50.2c0,29.3,23.9,53.2,53.2,53.2c10,0,18.2,8.2,18.2,18.2s-8.2,18.2-18.2,18.2c-5.1,0-9.8-2-13.3-5.7
			c-6.6-7-17.7-7.4-24.7-0.8s-7.4,17.7-0.8,24.7c5.9,6.3,13.2,11,21.3,13.8v7.6c0,9.7,7.8,17.5,17.5,17.5s17.5-7.8,17.5-17.5v-7.6
			c20.8-7.3,35.7-27,35.7-50.2C298.132,324.665,274.232,300.865,244.932,300.865z"/>
	</g>
</g>
<g>
</g>
<g>
</g>
<g>
</g>
<g>
</g>
<g>
</g>
<g>
</g>
<g>
</g>
<g>
</g>
<g>
</g>
<g>
</g>
<g>
</g>
<g>
</g>
<g>
</g>
<g>
</g>
<g>
</g>
</svg>
