<?xml version='1.0' encoding='utf-8'?>
<!DOCTYPE svg PUBLIC '-//W3C//DTD SVG 1.1//EN' 'http://www.w3.org/Graphics/SVG/1.1/DTD/svg11.dtd'>
<svg version="1.1" xmlns="http://www.w3.org/2000/svg" viewBox="0 0 512 512" xmlns:xlink="http://www.w3.org/1999/xlink" enable-background="new 0 0 512 512">
  <g>
    <path d="M480.6,11H31.4C20.1,11,11,20.1,11,31.4V363c0,11.3,9.1,20.4,20.4,20.4h204.2v76.8h-76.9c-11.3,0-20.4,9.1-20.4,20.4   c0,11.3,9.1,20.4,20.4,20.4h194.6c11.3,0,20.4-9.1,20.4-20.4c0-11.3-9.1-20.4-20.4-20.4h-76.9v-76.8h204.2   c11.3,0,20.4-9.1,20.4-20.4V31.4C501,20.1,491.9,11,480.6,11z M460.2,342.6H51.8V51.8h408.3V342.6z"/>
  </g>
</svg>
