<?xml version='1.0' encoding='utf-8'?>
<!DOCTYPE svg PUBLIC '-//W3C//DTD SVG 1.1//EN' 'http://www.w3.org/Graphics/SVG/1.1/DTD/svg11.dtd'>
<svg version="1.1" xmlns="http://www.w3.org/2000/svg" viewBox="0 0 512 512" xmlns:xlink="http://www.w3.org/1999/xlink" enable-background="new 0 0 512 512">
  <g>
    <path d="m480.6,69.7h-292.8c-11.3,0-20.4,9.1-20.4,20.4v81.8c-40.5,3.9-124.8,25.7-155.7,137.1-0.5,1.8-0.7,3.6-0.7,5.4v57.7c0,11.3 9.1,20.4 20.4,20.4h18.1c6.3,28.5 30.8,49.8 60.1,49.8 29.2,0 53.7-21.3 60.1-49.8h18.1 127.4c6.3,28.5 30.9,49.8 60.1,49.8 29.2,0 53.7-21.3 60.1-49.8h45.3c11.3,0 20.4-9.1 20.4-20.4v-282c-0.1-11.3-9.2-20.4-20.5-20.4zm-428.8,247.5c18.1-79.3 84.7-101.2 115.5-104.7v139.1h-1.5c-9.7-22.4-31.2-38-56.3-38-25,0-46.6,15.6-56.3,38h-1.5c0.1,0.1-1.8-26 0.1-34.4zm57.8,84.3c-11.5,0-20.8-10.5-20.8-23.5 0-12.9 9.4-23.5 20.8-23.5 11.5,0 20.8,10.5 20.8,23.5 0,12.9-9.3,23.5-20.8,23.5zm265.6,0c-11.5,0-20.8-10.5-20.8-23.5 0-12.9 9.4-23.5 20.8-23.5 11.5,0 20.8,10.5 20.8,23.5 0.1,12.9-9.3,23.5-20.8,23.5zm85-49.8h-28.7c-9.7-22.4-31.2-38-56.2-38-25,0-46.6,15.6-56.3,38h-110.8v-241.2h252v241.2z"/>
  </g>
</svg>
