<?xml version="1.0" encoding="iso-8859-1"?>
<!-- Generator: Adobe Illustrator 19.0.0, SVG Export Plug-In . SVG Version: 6.00 Build 0)  -->
<svg version="1.1" id="Layer_1" xmlns="http://www.w3.org/2000/svg" xmlns:xlink="http://www.w3.org/1999/xlink" x="0px" y="0px"
	 viewBox="0 0 489.589 489.589" style="enable-background:new 0 0 489.589 489.589;" xml:space="preserve">
<g>
	<g>
		<g>
			<path d="M482.606,104.1c-4.5-13.1-21.4-19.8-33.3-8.3l-66.7,66.7l-55.2-55.2l66.7-66.7c13.2-12.5,4.1-29.8-8.3-33.3
				c-14.6-5.2-29.2-7.3-44.8-7.3c-39.6,0-77.1,15.6-105.2,43.7c-32.3,32.3-47.9,78.1-42.7,122.9l-165.7,165.6
				c-36.5,35.4-36.5,93.7,0,130.2c35.6,35.7,94.4,36.8,130.2,0l165.6-164.6c54.5,5.4,91.9-14.1,122.9-42.7
				C485.706,215.5,499.206,157.2,482.606,104.1z M419.006,226c-20.8,19.8-57.7,37-97.9,29.2c-7.3-2.1-13.5,0-18.7,5.2l-172.9,172.8
				c-17.2,17.6-50.4,20.6-72.9,0c-19.8-19.8-19.8-53.1,0-72.9l171.9-172.9c4.2-5.2,6.2-12.5,5.2-18.7c-6.2-35.4,5.2-71.9,30.2-96.9
				c19.8-18.7,45.8-30.2,72.9-31.2l-52.1,53.1c-9.4,9.9-7.4,22.1,0,29.2l83.3,83.3c8.3,7.3,21.9,7.3,29.2,0l53.1-53.1
				C449.206,180.1,438.806,206.2,419.006,226z"/>
			<path d="M102.406,380.1c-8.3-8.3-20.8-8.3-29.2,0c-8.3,8.3-8.3,20.8,0,29.2l6.2,6.2c8.1,8.3,21.1,8.3,29.2,0
				c8.3-8.3,8.3-20.8,0-29.2L102.406,380.1z"/>
		</g>
	</g>
</g>
<g>
</g>
<g>
</g>
<g>
</g>
<g>
</g>
<g>
</g>
<g>
</g>
<g>
</g>
<g>
</g>
<g>
</g>
<g>
</g>
<g>
</g>
<g>
</g>
<g>
</g>
<g>
</g>
<g>
</g>
</svg>
